<?xml version="1.0" encoding="UTF-8" standalone="no"?>
<!-- Created with Inkscape (http://www.inkscape.org/) -->
<svg
   xmlns:svg="http://www.w3.org/2000/svg"
   xmlns="http://www.w3.org/2000/svg"
   version="1.0"
baseProfile="full"
viewBox="0 0 640 480" preserveAspectRatio="xMidYMid"
   id="svg5628">
  <defs
     id="defs5630" />
  <g
     id="layer1">
    <g
       transform="translate(-8.340419,-41.64282)"
       id="g2902">
      <rect
         width="596"
         height="494"
         rx="65"
         ry="65"
         x="24"
         y="46.174744"
         style="opacity:1;fill:white;fill-opacity:1;stroke:white;stroke-width:21.75;stroke-linecap:round;stroke-linejoin:round;stroke-miterlimit:4;stroke-dasharray:none;stroke-dashoffset:0;stroke-opacity:1"
         id="rect2904" />
      <g
         transform="matrix(0.899223,0,0,0.910459,14.1243,214.4571)"
         id="g2906">
        <g
           transform="translate(-0.6294,0)"
           id="g2908">
          <path
             d="M 397.51612,206.95471 C 397.51608,201.23123 396.32845,196.7955 393.95323,193.64753 C 391.60655,190.49964 388.30122,188.92567 384.03723,188.92563 C 379.8018,188.92567 376.49647,190.49964 374.12123,193.64753 C 371.77457,196.7955 370.60125,201.23123 370.60127,206.95471 C 370.60125,212.64964 371.77457,217.07105 374.12123,220.21897 C 376.49647,223.36691 379.8018,224.94088 384.03723,224.94087 C 388.30122,224.94088 391.60655,223.36691 393.95323,220.21897 C 396.32845,217.07105 397.51608,212.64964 397.51612,206.95471 M 405.41457,225.58477 C 405.41452,233.7694 403.59731,239.85063 399.96292,243.82849 C 396.32845,247.83493 390.76233,249.83816 383.26455,249.83818 C 380.48862,249.83816 377.87012,249.62353 375.40902,249.19429 C 372.94789,248.79362 370.55833,248.16404 368.24032,247.30552 L 368.24032,239.6217 C 370.55833,240.88087 372.84773,241.81094 375.10854,242.41192 C 377.36931,243.01287 379.67302,243.31336 382.01969,243.31337 C 387.19944,243.31336 391.07712,241.95402 393.65274,239.23536 C 396.22829,236.5453 397.51608,232.4673 397.51612,227.00134 L 397.51612,223.09504 C 395.88487,225.92819 393.79579,228.04589 391.24886,229.44815 C 388.70187,230.85041 385.65409,231.55154 382.10554,231.55154 C 376.2103,231.55154 371.45978,229.30506 367.85398,224.81209 C 364.24815,220.31914 362.44525,214.36669 362.44525,206.95471 C 362.44525,199.51417 364.24815,193.54741 367.85398,189.05441 C 371.45978,184.56149 376.2103,182.31501 382.10554,182.31497 C 385.65409,182.31501 388.70187,183.01614 391.24886,184.41836 C 393.79579,185.82067 395.88487,187.93837 397.51612,190.77146 L 397.51612,183.47398 L 405.41457,183.47398 L 405.41457,225.58477 M 449.54288,190.85732 C 448.6557,190.34224 447.68271,189.97021 446.62389,189.74123 C 445.59362,189.48371 444.44892,189.35494 443.18978,189.35489 C 438.72541,189.35494 435.2913,190.81443 432.88744,193.73339 C 430.51217,196.6238 429.32454,200.78765 429.32455,206.22497 L 429.32455,231.55154 L 421.38317,231.55154 L 421.38317,183.47398 L 429.32455,183.47398 L 429.32455,190.94317 C 430.98436,188.02422 433.14498,185.86359 435.80644,184.46128 C 438.46785,183.03045 441.70163,182.31501 445.5078,182.31497 C 446.0515,182.31501 446.65247,182.35794 447.31071,182.44374 C 447.96888,182.50103 448.69863,182.60119 449.49996,182.74423 L 449.54288,190.85732 M 479.76308,207.38398 C 473.38133,207.384 468.95992,208.11375 466.49882,209.57322 C 464.03769,211.03274 462.80714,213.52247 462.80715,217.04242 C 462.80714,219.84695 463.7229,222.07912 465.55444,223.73893 C 467.41457,225.37014 469.93291,226.18574 473.10949,226.18574 C 477.48795,226.18574 480.9936,224.6404 483.62645,221.54969 C 486.28785,218.43038 487.61857,214.29515 487.61861,209.14396 L 487.61861,207.38398 L 479.76308,207.38398 M 495.51706,204.12157 L 495.51706,231.55154 L 487.61861,231.55154 L 487.61861,224.25405 C 485.81566,227.17305 483.56918,229.33368 480.87916,230.73594 C 478.18908,232.10958 474.89806,232.7964 471.00609,232.7964 C 466.08385,232.7964 462.16324,231.42276 459.24426,228.67547 C 456.35388,225.89957 454.90869,222.19359 454.9087,217.55753 C 454.90869,212.14883 456.7116,208.07082 460.31742,205.32351 C 463.95184,202.57625 469.36056,201.20261 476.5436,201.20258 L 487.61861,201.20258 L 487.61861,200.4299 C 487.61857,196.7955 486.41663,193.99098 484.01279,192.01633 C 481.6375,190.01314 478.28924,189.01152 473.96801,189.01148 C 471.2207,189.01152 468.54496,189.34063 465.94078,189.99879 C 463.33656,190.65704 460.83253,191.64434 458.42866,192.96071 L 458.42866,185.66322 C 461.31903,184.54718 464.12355,183.71728 466.84223,183.17349 C 469.56089,182.60119 472.20801,182.31501 474.78362,182.31497 C 481.73766,182.31501 486.93175,184.11792 490.3659,187.72369 C 493.79996,191.32955 495.51702,196.7955 495.51706,204.12157 M 549.26092,192.70315 C 551.23548,189.15461 553.59643,186.53611 556.34377,184.84762 C 559.09101,183.15923 562.32479,182.31501 566.04514,182.31497 C 571.05315,182.31501 574.91652,184.07499 577.63526,187.59491 C 580.35386,191.0863 581.71319,196.06576 581.71327,202.5333 L 581.71327,231.55154 L 573.77189,231.55154 L 573.77189,202.79085 C 573.77182,198.18346 572.95622,194.76366 571.32508,192.53145 C 569.69381,190.29932 567.20409,189.18323 563.85589,189.18319 C 559.76352,189.18323 556.52973,190.54256 554.15453,193.2612 C 551.77922,195.9799 550.59159,199.68588 550.59163,204.37913 L 550.59163,231.55154 L 542.65025,231.55154 L 542.65025,202.79085 C 542.65021,198.15484 541.83461,194.73504 540.20345,192.53145 C 538.57221,190.29932 536.05386,189.18323 532.6484,189.18319 C 528.6133,189.18323 525.40813,190.55687 523.03289,193.30412 C 520.65761,196.02283 519.46998,199.7145 519.47,204.37913 L 519.47,231.55154 L 511.52862,231.55154 L 511.52862,183.47398 L 519.47,183.47398 L 519.47,190.94317 C 521.27289,187.9956 523.43352,185.82067 525.95189,184.41836 C 528.47021,183.01614 531.46074,182.31501 534.9235,182.31497 C 538.41481,182.31501 541.37673,183.20216 543.80926,184.9764 C 546.27034,186.75074 548.08755,189.32632 549.26092,192.70315 M 628.15961,184.89055 L 628.15961,192.35974 C 625.9274,191.21508 623.60938,190.35655 621.20553,189.78416 C 618.80162,189.21185 616.3119,188.92567 613.73634,188.92563 C 609.81571,188.92567 606.8681,189.52664 604.8935,190.72854 C 602.94749,191.93052 601.97449,193.73342 601.97451,196.13726 C 601.97449,197.96882 602.67562,199.41401 604.0779,200.47283 C 605.48015,201.50309 608.29898,202.4904 612.5344,203.43475 L 615.23876,204.03572 C 620.84778,205.23769 624.82562,206.94043 627.1723,209.14396 C 629.54752,211.31892 630.73515,214.36669 630.73519,218.28728 C 630.73515,222.75164 628.96086,226.28591 625.41232,228.8901 C 621.89232,231.4943 617.04164,232.7964 610.86027,232.7964 C 608.28467,232.7964 605.59462,232.53884 602.79011,232.02373 C 600.01419,231.53723 597.08089,230.79317 593.9902,229.79156 L 593.9902,221.63554 C 596.90919,223.15228 599.78525,224.29699 602.6184,225.06965 C 605.45153,225.81372 608.25605,226.18574 611.03198,226.18574 C 614.75224,226.18574 617.61399,225.55616 619.61726,224.29698 C 621.62045,223.00919 622.62207,221.20629 622.6221,218.88825 C 622.62207,216.74195 621.89232,215.09644 620.43286,213.95172 C 619.00195,212.80703 615.83971,211.70526 610.94612,210.64638 L 608.19883,210.00249 C 603.30521,208.97228 599.77094,207.39831 597.59602,205.28059 C 595.42107,203.13429 594.3336,200.20099 594.33361,196.48067 C 594.3336,191.95913 595.93619,188.46779 599.14137,186.00663 C 602.34652,183.54557 606.89672,182.31501 612.79196,182.31497 C 615.71093,182.31501 618.45821,182.52965 621.03383,182.95886 C 623.60938,183.38817 625.98463,184.03207 628.15961,184.89055"
             style="fill:#2e3436"
             id="path2910" />
          <path
             d="M 79.860795,207.38398 C 73.479048,207.384 69.057634,208.11375 66.59654,209.57322 C 64.135412,211.03274 62.904857,213.52247 62.90487,217.04242 C 62.904857,219.84695 63.820619,222.07912 65.652159,223.73893 C 67.512285,225.37014 70.030631,226.18574 73.207204,226.18574 C 77.585669,226.18574 81.091321,224.6404 83.724171,221.54969 C 86.38557,218.43038 87.716287,214.29515 87.716325,209.14396 L 87.716325,207.38398 L 79.860795,207.38398 M 95.614782,204.12157 L 95.614782,231.55154 L 87.716325,231.55154 L 87.716325,224.25405 C 85.913381,227.17305 83.666902,229.33368 80.976882,230.73594 C 78.286799,232.10958 74.995779,232.7964 71.103811,232.7964 C 66.181568,232.7964 62.260961,231.42276 59.341979,228.67547 C 56.451595,225.89957 55.006408,222.19359 55.006414,217.55753 C 55.006408,212.14883 56.809315,208.07082 60.415139,205.32351 C 64.049559,202.57625 69.45828,201.20261 76.641316,201.20258 L 87.716325,201.20258 L 87.716325,200.4299 C 87.716287,196.7955 86.51435,193.99098 84.110508,192.01633 C 81.735216,190.01314 78.38696,189.01152 74.065732,189.01148 C 71.318421,189.01152 68.642679,189.34063 66.038497,189.99879 C 63.434282,190.65704 60.930245,191.64434 58.526378,192.96071 L 58.526378,185.66322 C 61.416743,184.54718 64.221265,183.71728 66.939951,183.17349 C 69.658603,182.60119 72.305728,182.31501 74.881334,182.31497 C 81.835377,182.31501 87.029466,184.11792 90.463615,187.72369 C 93.897682,191.32955 95.614736,196.7955 95.614782,204.12157 M 143.56356,190.77146 L 143.56356,164.75807 L 151.46202,164.75807 L 151.46202,231.55154 L 143.56356,231.55154 L 143.56356,224.3399 C 141.9037,227.20167 139.80031,229.33368 137.25338,230.73594 C 134.735,232.10958 131.70154,232.7964 128.15299,232.7964 C 122.3436,232.7964 117.60739,230.47838 113.94435,225.84233 C 110.30991,221.20629 108.49269,215.11075 108.4927,207.55568 C 108.49269,200.00067 110.30991,193.90513 113.94435,189.26904 C 117.60739,184.63304 122.3436,182.31501 128.15299,182.31497 C 131.70154,182.31501 134.735,183.01614 137.25338,184.41836 C 139.80031,185.79205 141.9037,187.90975 143.56356,190.77146 M 116.64871,207.55568 C 116.6487,213.36507 117.83633,217.92958 120.21161,221.2492 C 122.61546,224.54023 125.90648,226.18574 130.08468,226.18574 C 134.26281,226.18574 137.55383,224.54023 139.95775,221.2492 C 142.36159,217.92958 143.56352,213.36507 143.56356,207.55568 C 143.56352,201.74634 142.36159,197.19615 139.95775,193.90509 C 137.55383,190.58549 134.26281,188.92567 130.08468,188.92563 C 125.90648,188.92567 122.61546,190.58549 120.21161,193.90509 C 117.83633,197.19615 116.6487,201.74634 116.64871,207.55568 M 189.58066,207.38398 C 183.19891,207.384 178.7775,208.11375 176.3164,209.57322 C 173.85528,211.03274 172.62472,213.52247 172.62473,217.04242 C 172.62472,219.84695 173.54048,222.07912 175.37202,223.73893 C 177.23215,225.37014 179.75049,226.18574 182.92707,226.18574 C 187.30553,226.18574 190.81118,224.6404 193.44403,221.54969 C 196.10543,218.43038 197.43615,214.29515 197.43619,209.14396 L 197.43619,207.38398 L 189.58066,207.38398 M 205.33465,204.12157 L 205.33465,231.55154 L 197.43619,231.55154 L 197.43619,224.25405 C 195.63324,227.17305 193.38677,229.33368 190.69675,230.73594 C 188.00666,232.10958 184.71564,232.7964 180.82367,232.7964 C 175.90143,232.7964 171.98083,231.42276 169.06184,228.67547 C 166.17146,225.89957 164.72627,222.19359 164.72628,217.55753 C 164.72627,212.14883 166.52918,208.07082 170.135,205.32351 C 173.76942,202.57625 179.17814,201.20261 186.36118,201.20258 L 197.43619,201.20258 L 197.43619,200.4299 C 197.43615,196.7955 196.23421,193.99098 193.83037,192.01633 C 191.45508,190.01314 188.10682,189.01152 183.7856,189.01148 C 181.03829,189.01152 178.36254,189.34063 175.75836,189.99879 C 173.15415,190.65704 170.65011,191.64434 168.24624,192.96071 L 168.24624,185.66322 C 171.13661,184.54718 173.94113,183.71728 176.65981,183.17349 C 179.37847,182.60119 182.02559,182.31501 184.6012,182.31497 C 191.55524,182.31501 196.74933,184.11792 200.18348,187.72369 C 203.61755,191.32955 205.3346,196.7955 205.33465,204.12157 M 229.28757,224.3399 L 229.28757,249.83818 L 221.34618,249.83818 L 221.34618,183.47398 L 229.28757,183.47398 L 229.28757,190.77146 C 230.94737,187.90975 233.03645,185.79205 235.55482,184.41836 C 238.10176,183.01614 241.13522,182.31501 244.65521,182.31497 C 250.49317,182.31501 255.22937,184.63304 258.86385,189.26904 C 262.52685,193.90513 264.35838,200.00067 264.35843,207.55568 C 264.35838,215.11075 262.52685,221.20629 258.86385,225.84233 C 255.22937,230.47838 250.49317,232.7964 244.65521,232.7964 C 241.13522,232.7964 238.10176,232.10958 235.55482,230.73594 C 233.03645,229.33368 230.94737,227.20167 229.28757,224.3399 M 256.15949,207.55568 C 256.15945,201.74634 254.95751,197.19615 252.55367,193.90509 C 250.17837,190.58549 246.90166,188.92567 242.72353,188.92563 C 238.54533,188.92567 235.25431,190.58549 232.85046,193.90509 C 230.47518,197.19615 229.28755,201.74634 229.28757,207.55568 C 229.28755,213.36507 230.47518,217.92958 232.85046,221.2492 C 235.25431,224.54023 238.54533,226.18574 242.72353,226.18574 C 246.90166,226.18574 250.17837,224.54023 252.55367,221.2492 C 254.95751,217.92958 256.15945,213.36507 256.15949,207.55568 M 285.26359,169.82338 L 285.26359,183.47398 L 301.5327,183.47398 L 301.5327,189.61245 L 285.26359,189.61245 L 285.26359,215.7117 C 285.26358,219.63232 285.793,222.15067 286.85187,223.26674 C 287.93932,224.38284 290.12856,224.94088 293.41961,224.94087 L 301.5327,224.94087 L 301.5327,231.55154 L 293.41961,231.55154 C 287.32404,231.55154 283.11726,230.42114 280.79925,228.16035 C 278.48121,225.87095 277.3222,221.7214 277.32221,215.7117 L 277.32221,189.61245 L 271.52715,189.61245 L 271.52715,183.47398 L 277.32221,183.47398 L 277.32221,169.82338 L 285.26359,169.82338 M 333.81334,207.38398 C 327.43159,207.384 323.01018,208.11375 320.54908,209.57322 C 318.08796,211.03274 316.8574,213.52247 316.85742,217.04242 C 316.8574,219.84695 317.77316,222.07912 319.6047,223.73893 C 321.46483,225.37014 323.98318,226.18574 327.15975,226.18574 C 331.53821,226.18574 335.04387,224.6404 337.67672,221.54969 C 340.33812,218.43038 341.66883,214.29515 341.66887,209.14396 L 341.66887,207.38398 L 333.81334,207.38398 M 349.56733,204.12157 L 349.56733,231.55154 L 341.66887,231.55154 L 341.66887,224.25405 C 339.86593,227.17305 337.61945,229.33368 334.92943,230.73594 C 332.23934,232.10958 328.94832,232.7964 325.05636,232.7964 C 320.13411,232.7964 316.21351,231.42276 313.29452,228.67547 C 310.40414,225.89957 308.95895,222.19359 308.95896,217.55753 C 308.95895,212.14883 310.76186,208.07082 314.36768,205.32351 C 318.0021,202.57625 323.41082,201.20261 330.59386,201.20258 L 341.66887,201.20258 L 341.66887,200.4299 C 341.66883,196.7955 340.46689,193.99098 338.06305,192.01633 C 335.68776,190.01314 332.33951,189.01152 328.01828,189.01148 C 325.27097,189.01152 322.59522,189.34063 319.99104,189.99879 C 317.38683,190.65704 314.88279,191.64434 312.47892,192.96071 L 312.47892,185.66322 C 315.36929,184.54718 318.17381,183.71728 320.8925,183.17349 C 323.61115,182.60119 326.25827,182.31501 328.83388,182.31497 C 335.78792,182.31501 340.98201,184.11792 344.41616,187.72369 C 347.85023,191.32955 349.56728,196.7955 349.56733,204.12157"
             style="fill:#a40000"
             id="path2912" />
        </g>
        <path
           d="M 222.48016,267.87043 L 236.06217,267.87043 L 236.06217,269.69857 L 230.36268,269.69857 L 230.36268,283.92581 L 228.17966,283.92581 L 228.17966,269.69857 L 222.48016,269.69857 L 222.48016,267.87043 M 246.42182,269.3437 C 244.8446,269.34371 243.58999,269.93158 242.658,271.10732 C 241.73318,272.28307 241.27077,273.88538 241.27077,275.91425 C 241.27077,277.93596 241.73318,279.53469 242.658,280.71043 C 243.58999,281.88618 244.8446,282.47405 246.42182,282.47405 C 247.99903,282.47405 249.24647,281.88618 250.16413,280.71043 C 251.08894,279.53469 251.55136,277.93596 251.55137,275.91425 C 251.55136,273.88538 251.08894,272.28307 250.16413,271.10732 C 249.24647,269.93158 247.99903,269.34371 246.42182,269.3437 M 246.42182,267.58008 C 248.67293,267.5801 250.4724,268.33644 251.82021,269.84913 C 253.168,271.35467 253.84191,273.37637 253.84192,275.91425 C 253.84191,278.44498 253.168,280.46668 251.82021,281.97937 C 250.4724,283.4849 248.67293,284.23766 246.42182,284.23767 C 244.16353,284.23766 242.35689,283.4849 241.00192,281.97937 C 239.65412,280.47385 238.98022,278.45214 238.98022,275.91425 C 238.98022,273.37637 239.65412,271.35467 241.00192,269.84913 C 242.35689,268.33644 244.16353,267.5801 246.42182,267.58008 M 265.49203,269.3437 C 263.9148,269.34371 262.6602,269.93158 261.72821,271.10732 C 260.80338,272.28307 260.34097,273.88538 260.34097,275.91425 C 260.34097,277.93596 260.80338,279.53469 261.72821,280.71043 C 262.6602,281.88618 263.9148,282.47405 265.49203,282.47405 C 267.06924,282.47405 268.31667,281.88618 269.23434,280.71043 C 270.15915,279.53469 270.62156,277.93596 270.62157,275.91425 C 270.62156,273.88538 270.15915,272.28307 269.23434,271.10732 C 268.31667,269.93158 267.06924,269.34371 265.49203,269.3437 M 265.49203,267.58008 C 267.74314,267.5801 269.5426,268.33644 270.89042,269.84913 C 272.23821,271.35467 272.91211,273.37637 272.91213,275.91425 C 272.91211,278.44498 272.23821,280.46668 270.89042,281.97937 C 269.5426,283.4849 267.74314,284.23766 265.49203,284.23767 C 263.23373,284.23766 261.4271,283.4849 260.07213,281.97937 C 258.72432,280.47385 258.05042,278.45214 258.05042,275.91425 C 258.05042,273.37637 258.72432,271.35467 260.07213,269.84913 C 261.4271,268.33644 263.23373,267.5801 265.49203,267.58008 M 278.04545,267.87043 L 280.21771,267.87043 L 280.21771,282.09767 L 288.0357,282.09767 L 288.0357,283.92581 L 278.04545,283.92581 L 278.04545,267.87043 M 301.66449,268.39737 L 301.66449,270.51586 C 300.84003,270.12157 300.06217,269.82763 299.33093,269.63405 C 298.59966,269.4405 297.8935,269.34371 297.21243,269.3437 C 296.02951,269.34371 295.11545,269.57313 294.47022,270.03194 C 293.83216,270.49078 293.51314,271.14317 293.51314,271.98913 C 293.51314,272.69888 293.72463,273.23657 294.14761,273.60219 C 294.57776,273.96066 295.38787,274.25101 296.57796,274.47325 L 297.88992,274.74209 C 299.51015,275.05037 300.70381,275.59523 301.47093,276.37666 C 302.24519,277.15094 302.63232,278.19047 302.63233,279.49525 C 302.63232,281.05097 302.10897,282.2303 301.06228,283.03324 C 300.02274,283.83619 298.49571,284.23766 296.48118,284.23767 C 295.72124,284.23766 294.91112,284.15163 294.05083,283.97957 C 293.19769,283.80751 292.3123,283.55301 291.39465,283.21606 L 291.39465,280.97927 C 292.27645,281.47395 293.14034,281.84675 293.9863,282.09767 C 294.83226,282.34859 295.66389,282.47405 296.48118,282.47405 C 297.72144,282.47405 298.67852,282.2303 299.35243,281.74279 C 300.02633,281.25529 300.36328,280.55988 300.36329,279.65656 C 300.36328,278.86796 300.11953,278.25141 299.63203,277.80691 C 299.15169,277.36243 298.35949,277.02906 297.25545,276.80681 L 295.93274,276.54872 C 294.3125,276.22612 293.14034,275.72069 292.41625,275.03244 C 291.69217,274.34421 291.33012,273.38713 291.33012,272.16119 C 291.33012,270.7417 291.82838,269.62331 292.8249,268.80601 C 293.82858,267.98874 295.20864,267.5801 296.9651,267.58008 C 297.71785,267.5801 298.48496,267.6482 299.2664,267.7844 C 300.04783,267.92063 300.8472,268.12495 301.66449,268.39737 M 316.50149,267.87043 L 325.72822,267.87043 L 325.72822,269.69857 L 318.67375,269.69857 L 318.67375,274.43023 L 325.03998,274.43023 L 325.03998,276.25837 L 318.67375,276.25837 L 318.67375,283.92581 L 316.50149,283.92581 L 316.50149,267.87043 M 337.44285,269.3437 C 335.86562,269.34371 334.61102,269.93158 333.67903,271.10732 C 332.7542,272.28307 332.29179,273.88538 332.29179,275.91425 C 332.29179,277.93596 332.7542,279.53469 333.67903,280.71043 C 334.61102,281.88618 335.86562,282.47405 337.44285,282.47405 C 339.02006,282.47405 340.26749,281.88618 341.18516,280.71043 C 342.10997,279.53469 342.57238,277.93596 342.57239,275.91425 C 342.57238,273.88538 342.10997,272.28307 341.18516,271.10732 C 340.26749,269.93158 339.02006,269.34371 337.44285,269.3437 M 337.44285,267.58008 C 339.69396,267.5801 341.49342,268.33644 342.84124,269.84913 C 344.18903,271.35467 344.86293,273.37637 344.86295,275.91425 C 344.86293,278.44498 344.18903,280.46668 342.84124,281.97937 C 341.49342,283.4849 339.69396,284.23766 337.44285,284.23767 C 335.18455,284.23766 333.37792,283.4849 332.02295,281.97937 C 330.67514,280.47385 330.00124,278.45214 330.00124,275.91425 C 330.00124,273.37637 330.67514,271.35467 332.02295,269.84913 C 333.37792,268.33644 335.18455,267.5801 337.44285,267.58008 M 357.60993,276.39817 C 358.07592,276.5559 358.52757,276.89285 358.9649,277.40902 C 359.40938,277.92521 359.85387,278.63496 360.29837,279.53827 L 362.50289,283.92581 L 360.16933,283.92581 L 358.11536,279.80711 C 357.58483,278.73174 357.06865,278.01841 356.56681,277.66711 C 356.07213,277.31583 355.39465,277.14019 354.53435,277.14018 L 352.16852,277.14018 L 352.16852,283.92581 L 349.99626,283.92581 L 349.99626,267.87043 L 354.89998,267.87043 C 356.73528,267.87045 358.10459,268.254 359.00792,269.02109 C 359.91122,269.7882 360.36288,270.94602 360.36289,272.49455 C 360.36288,273.50542 360.1263,274.34421 359.65315,275.01093 C 359.18714,275.67768 358.50607,276.14009 357.60993,276.39817 M 352.16852,269.65556 L 352.16852,275.35505 L 354.89998,275.35505 C 355.94667,275.35506 356.73528,275.1149 357.26581,274.63455 C 357.80349,274.14706 358.07233,273.43372 358.07234,272.49455 C 358.07233,271.5554 357.80349,270.84924 357.26581,270.37606 C 356.73528,269.89574 355.94667,269.65557 354.89998,269.65556 L 352.16852,269.65556 M 381.15748,270.01043 L 378.21095,278.00048 L 384.11477,278.00048 L 381.15748,270.01043 M 379.93155,267.87043 L 382.39417,267.87043 L 388.51306,283.92581 L 386.25477,283.92581 L 384.79226,279.80711 L 377.55497,279.80711 L 376.09246,283.92581 L 373.80191,283.92581 L 379.93155,267.87043 M 394.75402,269.65556 L 394.75402,282.14068 L 397.37794,282.14068 C 399.59321,282.14068 401.21344,281.63884 402.23864,280.63515 C 403.27099,279.63147 403.78717,278.04709 403.78718,275.88199 C 403.78717,273.73125 403.27099,272.15761 402.23864,271.16108 C 401.21344,270.15741 399.59321,269.65557 397.37794,269.65556 L 394.75402,269.65556 M 392.58176,267.87043 L 397.04457,267.87043 C 400.15598,267.87045 402.43937,268.51926 403.89472,269.81686 C 405.35005,271.10733 406.07772,273.12904 406.07774,275.88199 C 406.07772,278.6493 405.34646,280.68176 403.88397,281.97937 C 402.42144,283.277 400.14165,283.92581 397.04457,283.92581 L 392.58176,283.92581 L 392.58176,267.87043 M 416.24382,270.01043 L 413.29728,278.00048 L 419.2011,278.00048 L 416.24382,270.01043 M 415.01789,267.87043 L 417.4805,267.87043 L 423.59939,283.92581 L 421.3411,283.92581 L 419.87859,279.80711 L 412.64131,279.80711 L 411.17879,283.92581 L 408.88824,283.92581 L 415.01789,267.87043 M 429.84035,269.65556 L 429.84035,275.68842 L 432.57181,275.68842 C 433.58266,275.68843 434.3641,275.42675 434.91613,274.9034 C 435.46815,274.38006 435.74416,273.63446 435.74417,272.66661 C 435.74416,271.70595 435.46815,270.96395 434.91613,270.44058 C 434.3641,269.91725 433.58266,269.65557 432.57181,269.65556 L 429.84035,269.65556 M 427.66809,267.87043 L 432.57181,267.87043 C 434.37126,267.87045 435.72982,268.27909 436.64749,269.09636 C 437.5723,269.90649 438.03471,271.09658 438.03472,272.66661 C 438.03471,274.25101 437.5723,275.44826 436.64749,276.25837 C 435.72982,277.06849 434.37126,277.47355 432.57181,277.47355 L 429.84035,277.47355 L 429.84035,283.92581 L 427.66809,283.92581 L 427.66809,267.87043 M 440.46884,267.87043 L 454.05085,267.87043 L 454.05085,269.69857 L 448.35135,269.69857 L 448.35135,283.92581 L 446.16834,283.92581 L 446.16834,269.69857 L 440.46884,269.69857 L 440.46884,267.87043 M 457.89372,267.87043 L 460.06599,267.87043 L 460.06599,283.92581 L 457.89372,283.92581 L 457.89372,267.87043 M 470.26433,283.92581 L 464.13469,267.87043 L 466.40373,267.87043 L 471.49026,281.38792 L 476.58755,267.87043 L 478.84584,267.87043 L 472.72694,283.92581 L 470.26433,283.92581 M 482.91454,267.87043 L 493.06609,267.87043 L 493.06609,269.69857 L 485.0868,269.69857 L 485.0868,274.45174 L 492.73273,274.45174 L 492.73273,276.27988 L 485.0868,276.27988 L 485.0868,282.09767 L 493.25966,282.09767 L 493.25966,283.92581 L 482.91454,283.92581 L 482.91454,267.87043 M 509.50541,269.65556 L 509.50541,282.14068 L 512.12933,282.14068 C 514.34459,282.14068 515.96483,281.63884 516.99003,280.63515 C 518.02238,279.63147 518.53856,278.04709 518.53857,275.88199 C 518.53856,273.73125 518.02238,272.15761 516.99003,271.16108 C 515.96483,270.15741 514.34459,269.65557 512.12933,269.65556 L 509.50541,269.65556 M 507.33315,267.87043 L 511.79596,267.87043 C 514.90737,267.87045 517.19075,268.51926 518.64611,269.81686 C 520.10144,271.10733 520.82911,273.12904 520.82912,275.88199 C 520.82911,278.6493 520.09785,280.68176 518.63536,281.97937 C 517.17283,283.277 514.89304,283.92581 511.79596,283.92581 L 507.33315,283.92581 L 507.33315,267.87043 M 526.01619,267.87043 L 528.18845,267.87043 L 528.18845,283.92581 L 526.01619,283.92581 L 526.01619,267.87043 M 539.61273,270.01043 L 536.6662,278.00048 L 542.57001,278.00048 L 539.61273,270.01043 M 538.3868,267.87043 L 540.84941,267.87043 L 546.96831,283.92581 L 544.71001,283.92581 L 543.2475,279.80711 L 536.01022,279.80711 L 534.5477,283.92581 L 532.25715,283.92581 L 538.3868,267.87043 M 561.59722,281.63525 L 561.59722,277.32299 L 558.04848,277.32299 L 558.04848,275.53787 L 563.74798,275.53787 L 563.74798,282.43103 C 562.90917,283.02608 561.98435,283.47773 560.9735,283.78601 C 559.96264,284.08711 558.88368,284.23766 557.73662,284.23767 C 555.2274,284.23766 553.26305,283.50641 551.84356,282.0439 C 550.43123,280.57422 549.72506,278.53101 549.72506,275.91425 C 549.72506,273.29034 550.43123,271.24713 551.84356,269.7846 C 553.26305,268.31494 555.2274,267.5801 557.73662,267.58008 C 558.78331,267.5801 559.77624,267.70914 560.71541,267.96722 C 561.66173,268.22532 562.53279,268.60529 563.32858,269.10712 L 563.32858,271.41918 C 562.52562,270.73812 561.67249,270.22552 560.76918,269.88139 C 559.86586,269.53728 558.91594,269.36522 557.91944,269.36521 C 555.95507,269.36522 554.47822,269.91366 553.48888,271.01053 C 552.5067,272.10743 552.01561,273.742 552.01562,275.91425 C 552.01561,278.07935 552.5067,279.71033 553.48888,280.80721 C 554.47822,281.9041 555.95507,282.45254 557.91944,282.45254 C 558.68653,282.45254 559.37118,282.38802 559.9734,282.25897 C 560.5756,282.12276 561.11688,281.91485 561.59722,281.63525 M 577.07566,276.39817 C 577.54165,276.5559 577.9933,276.89285 578.43063,277.40902 C 578.87511,277.92521 579.3196,278.63496 579.7641,279.53827 L 581.96862,283.92581 L 579.63506,283.92581 L 577.58109,279.80711 C 577.05056,278.73174 576.53438,278.01841 576.03254,277.66711 C 575.53786,277.31583 574.86038,277.14019 574.00008,277.14018 L 571.63425,277.14018 L 571.63425,283.92581 L 569.46199,283.92581 L 569.46199,267.87043 L 574.36571,267.87043 C 576.20101,267.87045 577.57032,268.254 578.47365,269.02109 C 579.37695,269.7882 579.82861,270.94602 579.82862,272.49455 C 579.82861,273.50542 579.59203,274.34421 579.11887,275.01093 C 578.65287,275.67768 577.9718,276.14009 577.07566,276.39817 M 571.63425,269.65556 L 571.63425,275.35505 L 574.36571,275.35505 C 575.4124,275.35506 576.20101,275.1149 576.73154,274.63455 C 577.26922,274.14706 577.53806,273.43372 577.53807,272.49455 C 577.53806,271.5554 577.26922,270.84924 576.73154,270.37606 C 576.20101,269.89574 575.4124,269.65557 574.36571,269.65556 L 571.63425,269.65556 M 590.97329,270.01043 L 588.02676,278.00048 L 593.93058,278.00048 L 590.97329,270.01043 M 589.74736,267.87043 L 592.20998,267.87043 L 598.32887,283.92581 L 596.07058,283.92581 L 594.60807,279.80711 L 587.37078,279.80711 L 585.90827,283.92581 L 583.61772,283.92581 L 589.74736,267.87043 M 602.39757,267.87043 L 605.63445,267.87043 L 609.73164,278.79626 L 613.85033,267.87043 L 617.08721,267.87043 L 617.08721,283.92581 L 614.96872,283.92581 L 614.96872,269.82762 L 610.82852,280.83947 L 608.64551,280.83947 L 604.50531,269.82762 L 604.50531,283.92581 L 602.39757,283.92581 L 602.39757,267.87043 M 632.76999,268.39737 L 632.76999,270.51586 C 631.94553,270.12157 631.16767,269.82763 630.43643,269.63405 C 629.70516,269.4405 628.999,269.34371 628.31793,269.3437 C 627.13501,269.34371 626.22094,269.57313 625.57572,270.03194 C 624.93766,270.49078 624.61863,271.14317 624.61864,271.98913 C 624.61863,272.69888 624.83013,273.23657 625.25311,273.60219 C 625.68326,273.96066 626.49337,274.25101 627.68346,274.47325 L 628.99542,274.74209 C 630.61565,275.05037 631.80931,275.59523 632.57643,276.37666 C 633.35068,277.15094 633.73782,278.19047 633.73783,279.49525 C 633.73782,281.05097 633.21447,282.2303 632.16778,283.03324 C 631.12824,283.83619 629.60121,284.23766 627.58668,284.23767 C 626.82674,284.23766 626.01662,284.15163 625.15633,283.97957 C 624.30319,283.80751 623.4178,283.55301 622.50015,283.21606 L 622.50015,280.97927 C 623.38195,281.47395 624.24584,281.84675 625.0918,282.09767 C 625.93776,282.34859 626.76939,282.47405 627.58668,282.47405 C 628.82694,282.47405 629.78402,282.2303 630.45793,281.74279 C 631.13183,281.25529 631.46878,280.55988 631.46879,279.65656 C 631.46878,278.86796 631.22503,278.25141 630.73753,277.80691 C 630.25719,277.36243 629.46499,277.02906 628.36095,276.80681 L 627.03824,276.54872 C 625.418,276.22612 624.24584,275.72069 623.52175,275.03244 C 622.79767,274.34421 622.43562,273.38713 622.43562,272.16119 C 622.43562,270.7417 622.93388,269.62331 623.9304,268.80601 C 624.93408,267.98874 626.31414,267.5801 628.0706,267.58008 C 628.82335,267.5801 629.59045,267.6482 630.3719,267.7844 C 631.15333,267.92063 631.9527,268.12495 632.76999,268.39737"
           style="fill:#2e3436;stroke:#2e3436;stroke-opacity:1"
           id="path2914" />
      </g>
      <path
         d="M 322,93.1875 L 322,123.1875 L 332,123.1875 L 332,93.1875 L 322,93.1875 z M 322,138.5625 L 322,168.5625 L 332,168.5625 L 332,138.5625 L 322,138.5625 z M 322,183.96875 L 322,213.96875 L 332,213.96875 L 332,183.96875 L 322,183.96875 z M 322,229.375 L 322,259.375 L 332,259.375 L 332,229.375 L 322,229.375 z M 322,320.1875 L 322,350.1875 L 332,350.1875 L 332,320.1875 L 322,320.1875 z "
         style="opacity:1;fill:#2e3436;fill-opacity:1;stroke:none;stroke-width:21.75;stroke-linecap:round;stroke-linejoin:round;stroke-miterlimit:4;stroke-dasharray:none;stroke-dashoffset:0;stroke-opacity:1"
         id="path2916" />
      <rect
         width="110"
         height="110"
         x="188"
         y="94.174744"
         style="opacity:1;fill:#babdb6;fill-opacity:1;stroke:none;stroke-width:21.75;stroke-linecap:round;stroke-linejoin:round;stroke-miterlimit:4;stroke-dasharray:none;stroke-dashoffset:0;stroke-opacity:1"
         id="rect2918" />
      <rect
         width="130"
         height="130"
         rx="65"
         ry="65"
         x="352"
         y="221.67474"
         style="opacity:1;fill:#babdb6;fill-opacity:1;stroke:none;stroke-width:21.75;stroke-linecap:round;stroke-linejoin:round;stroke-miterlimit:4;stroke-dasharray:none;stroke-dashoffset:0;stroke-opacity:1"
         id="rect2920" />
      <path
         d="M 236.3125,213.15625 C 236.3125,213.15625 234.48623,233.2071 243.46875,253.1875 C 252.45127,273.1679 273.08948,293.04119 315,291.84375 L 314.78125,283.84375 C 275.37566,284.96963 258.74038,267.67976 250.75,249.90625 C 242.75962,232.13274 244.28125,213.84375 244.28125,213.84375 L 236.3125,213.15625 z "
         style="fill:#a40000;fill-opacity:1;stroke:none;stroke-width:8px;stroke-opacity:1"
         id="path2922" />
      <path
         d="M 313.88231,303.33307 L 313.88231,286.67474 L 313.88231,270.01641 L 328.30885,278.34558 L 342.73538,286.67474 L 328.30885,295.00391 L 313.88231,303.33307 z "
         style="fill:#a40000"
         id="path2924" />
    </g>
  </g>
</svg>
